<svg width="20" height="20" viewBox="0 0 20 20" fill="none" xmlns="http://www.w3.org/2000/svg">
    <path fill-rule="evenodd" clip-rule="evenodd" d="M2.70825 9.99967C2.70825 5.9726 5.97284 2.70801 9.99992 2.70801C14.027 2.70801 17.2916 5.9726 17.2916 9.99967C17.2916 14.0268 14.027 17.2913 9.99992 17.2913C5.97284 17.2913 2.70825 14.0268 2.70825 9.99967ZM10.8333 6.66634C10.8333 7.12658 10.4602 7.49967 9.99992 7.49967C9.53968 7.49967 9.16658 7.12658 9.16658 6.66634C9.16658 6.2061 9.53968 5.83301 9.99992 5.83301C10.4602 5.83301 10.8333 6.2061 10.8333 6.66634ZM9.99992 8.95801C10.3451 8.95801 10.6249 9.23783 10.6249 9.58301V13.7497C10.6249 14.0949 10.3451 14.3747 9.99992 14.3747C9.65474 14.3747 9.37492 14.0949 9.37492 13.7497V9.58301C9.37492 9.23783 9.65474 8.95801 9.99992 8.95801Z" fill="#0F6421"/>
</svg>
