<svg width="28" height="28" viewBox="0 0 28 28" fill="none" xmlns="http://www.w3.org/2000/svg">
    <path d="M14.0001 1.1665C11.4619 1.1665 8.9807 1.91917 6.87027 3.32931C4.75984 4.73946 3.11496 6.74375 2.14363 9.08873C1.17231 11.4337 0.918166 14.0141 1.41334 16.5035C1.90852 18.9929 3.13078 21.2796 4.92555 23.0744C6.72032 24.8692 9.00701 26.0914 11.4964 26.5866C13.9859 27.0818 16.5662 26.8276 18.9112 25.8563C21.2562 24.885 23.2605 23.2401 24.6706 21.1297C26.0808 19.0192 26.8334 16.538 26.8334 13.9998C26.8294 10.5975 25.476 7.33558 23.0702 4.92973C20.6643 2.52389 17.4025 1.17052 14.0001 1.1665ZM19.8334 15.1665H15.1668V19.8332C15.1668 20.1426 15.0438 20.4393 14.825 20.6581C14.6063 20.8769 14.3095 20.9998 14.0001 20.9998C13.6907 20.9998 13.3939 20.8769 13.1751 20.6581C12.9563 20.4393 12.8334 20.1426 12.8334 19.8332V15.1665H8.16675C7.85733 15.1665 7.56059 15.0436 7.3418 14.8248C7.123 14.606 7.00009 14.3093 7.00009 13.9998C7.00009 13.6904 7.123 13.3937 7.3418 13.1749C7.56059 12.9561 7.85733 12.8332 8.16675 12.8332H12.8334V8.1665C12.8334 7.85709 12.9563 7.56034 13.1751 7.34155C13.3939 7.12275 13.6907 6.99984 14.0001 6.99984C14.3095 6.99984 14.6063 7.12275 14.825 7.34155C15.0438 7.56034 15.1668 7.85709 15.1668 8.1665V12.8332H19.8334C20.1428 12.8332 20.4396 12.9561 20.6584 13.1749C20.8772 13.3937 21.0001 13.6904 21.0001 13.9998C21.0001 14.3093 20.8772 14.606 20.6584 14.8248C20.4396 15.0436 20.1428 15.1665 19.8334 15.1665Z" fill="white"/>
</svg>
