<svg width="24" height="24" viewBox="0 0 24 24" fill="none" xmlns="http://www.w3.org/2000/svg">
    <path d="M20.2422 10.2422H13.7578V3.75781C13.7578 2.78699 12.9708 2 12 2C11.0292 2 10.2422 2.78699 10.2422 3.75781V10.2422H3.75781C2.78699 10.2422 2 11.0292 2 12C2 12.9708 2.78699 13.7578 3.75781 13.7578H10.2422V20.2422C10.2422 21.213 11.0292 22 12 22C12.9708 22 13.7578 21.213 13.7578 20.2422V13.7578H20.2422C21.213 13.7578 22 12.9708 22 12C22 11.0292 21.213 10.2422 20.2422 10.2422Z" fill="#0F6421"/>
</svg>
