<svg width="24" height="24" viewBox="0 0 24 24" fill="none" xmlns="http://www.w3.org/2000/svg">
    <path d="M21.2107 6.5145C21.0922 4.54387 19.4467 3 17.4649 3H16.5V2.25C16.5 2.05109 16.421 1.86032 16.2803 1.71967C16.1397 1.57902 15.9489 1.5 15.75 1.5C15.5511 1.5 15.3603 1.57902 15.2197 1.71967C15.079 1.86032 15 2.05109 15 2.25V3H8.99998V2.25C8.99998 2.05109 8.92096 1.86032 8.78031 1.71967C8.63966 1.57902 8.44889 1.5 8.24998 1.5C8.05107 1.5 7.8603 1.57902 7.71965 1.71967C7.579 1.86032 7.49998 2.05109 7.49998 2.25V3H6.53511C4.55286 3 2.90736 4.54387 2.78923 6.5145C2.56686 10.221 2.57098 13.9807 2.80161 17.6891C2.91861 19.5724 4.42723 21.081 6.31048 21.198C8.19786 21.3154 10.0987 21.3739 11.9996 21.3739C13.9001 21.3739 15.8014 21.3154 17.6887 21.198C19.572 21.081 21.0806 19.5724 21.1976 17.6891C21.4286 13.9826 21.4327 10.2232 21.2107 6.5145ZM19.701 17.5961C19.6662 18.143 19.4333 18.6584 19.0458 19.0459C18.6584 19.4333 18.143 19.6662 17.5961 19.701C13.8829 19.9316 10.1171 19.9316 6.40386 19.701C5.85701 19.6662 5.34158 19.4333 4.95412 19.0459C4.56665 18.6584 4.33373 18.143 4.29898 17.5961C4.12319 14.7343 4.08352 11.8656 4.18011 9H19.8202C19.9147 11.865 19.8784 14.7461 19.701 17.5961ZM8.24998 6C8.44889 6 8.63966 5.92098 8.78031 5.78033C8.92096 5.63968 8.99998 5.44891 8.99998 5.25V4.5H15V5.25C15 5.44891 15.079 5.63968 15.2197 5.78033C15.3603 5.92098 15.5511 6 15.75 6C15.9489 6 16.1397 5.92098 16.2803 5.78033C16.421 5.63968 16.5 5.44891 16.5 5.25V4.5H17.4649C18.6547 4.5 19.6425 5.42437 19.7134 6.60412C19.731 6.90187 19.7385 7.2015 19.7531 7.5H4.24686C4.26186 7.2015 4.26898 6.90187 4.28661 6.60412C4.35748 5.42437 5.34486 4.5 6.53511 4.5H7.49998V5.25C7.49998 5.44891 7.579 5.63968 7.71965 5.78033C7.8603 5.92098 8.05107 6 8.24998 6Z" fill="#0F6421"/>
    <path d="M8.25 13.5C8.87132 13.5 9.375 12.9963 9.375 12.375C9.375 11.7537 8.87132 11.25 8.25 11.25C7.62868 11.25 7.125 11.7537 7.125 12.375C7.125 12.9963 7.62868 13.5 8.25 13.5Z" fill="#0F6421"/>
    <path d="M12 13.5C12.6213 13.5 13.125 12.9963 13.125 12.375C13.125 11.7537 12.6213 11.25 12 11.25C11.3787 11.25 10.875 11.7537 10.875 12.375C10.875 12.9963 11.3787 13.5 12 13.5Z" fill="#0F6421"/>
    <path d="M8.25 17.25C8.87132 17.25 9.375 16.7463 9.375 16.125C9.375 15.5037 8.87132 15 8.25 15C7.62868 15 7.125 15.5037 7.125 16.125C7.125 16.7463 7.62868 17.25 8.25 17.25Z" fill="#0F6421"/>
    <path d="M15.75 13.5C16.3713 13.5 16.875 12.9963 16.875 12.375C16.875 11.7537 16.3713 11.25 15.75 11.25C15.1287 11.25 14.625 11.7537 14.625 12.375C14.625 12.9963 15.1287 13.5 15.75 13.5Z" fill="#0F6421"/>
    <path d="M15.75 17.25C16.3713 17.25 16.875 16.7463 16.875 16.125C16.875 15.5037 16.3713 15 15.75 15C15.1287 15 14.625 15.5037 14.625 16.125C14.625 16.7463 15.1287 17.25 15.75 17.25Z" fill="#0F6421"/>
    <path d="M12 17.25C12.6213 17.25 13.125 16.7463 13.125 16.125C13.125 15.5037 12.6213 15 12 15C11.3787 15 10.875 15.5037 10.875 16.125C10.875 16.7463 11.3787 17.25 12 17.25Z" fill="#0F6421"/>
</svg>
