<svg width="28" height="28" viewBox="0 0 28 28" fill="none" xmlns="http://www.w3.org/2000/svg">
    <path fill-rule="evenodd" clip-rule="evenodd" d="M5.83325 3.50016V5.07166C5.07609 5.29683 4.40525 5.648 3.85925 6.19283C3.19892 6.85433 2.82442 7.69783 2.61092 8.65683C2.40209 9.60183 2.33325 10.7288 2.33325 12.0308V18.3028C2.33325 19.6048 2.40209 20.7318 2.61209 21.6768C2.82442 22.6358 3.19892 23.4793 3.86042 24.1408C4.52075 24.8012 5.36425 25.1757 6.32209 25.3892C7.26825 25.5992 8.39525 25.6668 9.69725 25.6668H18.3026C19.6046 25.6668 20.7316 25.5992 21.6766 25.388C22.6356 25.1757 23.4791 24.8012 24.1406 24.1397C24.8021 23.4782 25.1754 22.6358 25.3889 21.678C25.5989 20.7318 25.6666 19.6048 25.6666 18.3028V12.0308C25.6666 10.7288 25.5989 9.60183 25.3878 8.65683C25.1754 7.69783 24.8009 6.85433 24.1394 6.19283C23.5946 5.648 22.9238 5.29683 22.1666 5.07283V3.50016C22.1666 3.19074 22.0437 2.894 21.8249 2.6752C21.6061 2.45641 21.3093 2.3335 20.9999 2.3335C20.6905 2.3335 20.3938 2.45641 20.175 2.6752C19.9562 2.894 19.8333 3.19074 19.8333 3.50016V4.70766C19.3235 4.67884 18.8131 4.66522 18.3026 4.66683H9.69725C9.15709 4.66683 8.64725 4.6785 8.16658 4.70766V3.50016C8.16658 3.19074 8.04367 2.894 7.82488 2.6752C7.60608 2.45641 7.30934 2.3335 6.99992 2.3335C6.6905 2.3335 6.39375 2.45641 6.17496 2.6752C5.95617 2.894 5.83325 3.19074 5.83325 3.50016ZM6.99992 10.5002C6.99992 10.1907 7.12284 9.894 7.34163 9.6752C7.56042 9.45641 7.85717 9.3335 8.16658 9.3335H19.8333C20.1427 9.3335 20.4394 9.45641 20.6582 9.6752C20.877 9.894 20.9999 10.1907 20.9999 10.5002C20.9999 10.8096 20.877 11.1063 20.6582 11.3251C20.4394 11.5439 20.1427 11.6668 19.8333 11.6668H8.16658C7.85717 11.6668 7.56042 11.5439 7.34163 11.3251C7.12284 11.1063 6.99992 10.8096 6.99992 10.5002Z" fill="white"/>
</svg>
