<svg width="20" height="20" viewBox="0 0 20 20" fill="none" xmlns="http://www.w3.org/2000/svg">
    <path fill-rule="evenodd" clip-rule="evenodd" d="M10 2.29169C5.74283 2.29169 2.29169 5.74283 2.29169 10C2.29169 14.2572 5.74283 17.7084 10 17.7084C14.2572 17.7084 17.7084 14.2572 17.7084 10C17.7084 5.74283 14.2572 2.29169 10 2.29169ZM1.04169 10C1.04169 5.05247 5.05247 1.04169 10 1.04169C14.9476 1.04169 18.9584 5.05247 18.9584 10C18.9584 14.9476 14.9476 18.9584 10 18.9584C5.05247 18.9584 1.04169 14.9476 1.04169 10ZM10 6.04169C10.3452 6.04169 10.625 6.32151 10.625 6.66669V9.74114L12.5253 11.6414C12.7694 11.8855 12.7694 12.2812 12.5253 12.5253C12.2812 12.7694 11.8855 12.7694 11.6414 12.5253L9.55808 10.442C9.44087 10.3248 9.37502 10.1658 9.37502 10V6.66669C9.37502 6.32151 9.65484 6.04169 10 6.04169Z" fill="#0D1217"/>
</svg>
