<svg width="24" height="24" viewBox="0 0 24 24" fill="none" xmlns="http://www.w3.org/2000/svg">
    <g clip-path="url(#clip0_158_1778)">
        <path d="M19.9636 15.0085C19.7878 15.1632 19.6129 15.3188 19.439 15.4749C20.7605 16.5568 21.9712 17.7675 23.0531 19.089C23.2092 18.915 23.3648 18.7407 23.5195 18.5644C24.0126 17.993 24.1842 16.8516 23.7553 16.2047C23.3672 15.6361 22.8914 15.1604 22.3233 14.7727C21.6759 14.3438 20.535 14.5154 19.9631 15.0085H19.9636ZM15.1523 23.9972C16.0772 23.9316 17.0873 23.835 18.0951 23.7661C18.2915 23.7525 18.4706 23.6841 18.5925 23.5735C19.8937 22.3932 21.1336 21.1693 22.3265 19.8849C21.1831 18.5755 19.9525 17.3449 18.6431 16.2015C17.3587 17.3944 16.1348 18.6343 14.9545 19.9355C14.8443 20.0574 14.7754 20.236 14.7618 20.4329C14.6929 21.4407 14.5959 22.4508 14.5308 23.3757C14.5012 23.754 14.7736 24.0263 15.1518 23.9968L15.1523 23.9972Z" fill="#0F6421"/>
        <path d="M14.6926 10.6801C15.9442 10.5546 16.857 9.4381 16.7315 8.18647C16.6059 6.93484 15.4894 6.02201 14.2378 6.1476C12.9861 6.27319 12.0733 7.38965 12.1989 8.64128C12.3245 9.89291 13.4409 10.8057 14.6926 10.6801Z" fill="#0F6421"/>
        <path d="M0.422812 16.4372C0.855469 18.8873 3.02953 21.0609 5.47969 21.4941L5.48859 21.4955C7.17937 21.7767 8.96812 21.9145 10.9598 21.9164C11.7839 21.9155 12.5737 21.8911 13.3364 21.8428C13.3772 21.3502 13.4189 20.8434 13.4531 20.3423C13.4873 19.8506 13.6753 19.3931 13.9828 19.0547C15.1837 17.7305 16.4513 16.447 17.7502 15.2405L17.7544 15.2367L17.7586 15.233L18.5545 14.5059L18.5583 14.5022L18.5625 14.4984C18.6652 14.4061 18.7631 14.3184 18.8592 14.2336C18.5991 13.8628 18.338 13.4916 18.075 13.1184C17.1684 11.8406 15.4566 11.8012 14.6409 13.0748C14.5467 13.2211 14.4525 13.3673 14.3573 13.5136C13.8117 14.3531 12.652 14.3508 12.0862 13.5019C11.0461 11.9433 10.0195 10.3833 9.05578 8.83453C8.25937 7.55203 6.64031 7.58672 5.74453 8.88516C4.48922 10.7133 3.19547 12.532 1.93969 14.3212C1.83516 13.2628 1.78312 12.15 1.78172 10.9594C1.78406 9.06984 1.91344 7.37719 2.17781 5.78531C2.325 4.95937 2.77828 4.13203 3.45516 3.45516C4.13203 2.77828 4.95937 2.32453 5.78578 2.17734C7.37766 1.91297 9.06984 1.78312 10.958 1.78125C12.847 1.78312 14.5397 1.91297 16.132 2.17734C16.958 2.32453 17.7853 2.77781 18.4622 3.45469C19.1391 4.13156 19.5928 4.95891 19.7395 5.78484C20.0039 7.37719 20.1337 9.06984 20.1356 10.957C20.1347 11.8322 20.1061 12.6647 20.0494 13.4644C20.4694 13.3041 20.9325 13.2159 21.3956 13.2159C21.5503 13.2159 21.7017 13.2258 21.8489 13.245C21.8934 12.51 21.9159 11.7497 21.9169 10.957C21.9145 8.96766 21.7767 7.17844 21.4959 5.48812L21.4945 5.47922C21.0614 3.02906 18.8878 0.855 16.4377 0.422344L16.4287 0.420937C14.7375 0.139687 12.9487 0.00234375 10.9575 0C8.96719 0.00234375 7.17844 0.140156 5.48859 0.420937L5.47969 0.422344C3.02953 0.855469 0.855469 3.02953 0.422812 5.47969L0.421406 5.48859C0.140156 7.17844 0.00234375 8.96766 0 10.9594C0.00234375 12.9502 0.140156 14.7394 0.420937 16.4287L0.422344 16.4377L0.422812 16.4372Z" fill="#0F6421"/>
    </g>
    <defs>
        <clipPath id="clip0_158_1778">
            <rect width="24" height="24" fill="white"/>
        </clipPath>
    </defs>
</svg>
