<svg width="20" height="20" viewBox="0 0 20 20" fill="none" xmlns="http://www.w3.org/2000/svg">
    <path d="M18.125 5V6.25H1.875V5C1.875 4.66848 2.0067 4.35054 2.24112 4.11612C2.47554 3.8817 2.79348 3.75 3.125 3.75H5V1.875C5 1.70924 5.06585 1.55027 5.18306 1.43306C5.30027 1.31585 5.45924 1.25 5.625 1.25C5.79076 1.25 5.94973 1.31585 6.06694 1.43306C6.18415 1.55027 6.25 1.70924 6.25 1.875V3.75H13.75V1.875C13.75 1.70924 13.8158 1.55027 13.9331 1.43306C14.0503 1.31585 14.2092 1.25 14.375 1.25C14.5408 1.25 14.6997 1.31585 14.8169 1.43306C14.9342 1.55027 15 1.70924 15 1.875V3.75H16.875C17.2065 3.75 17.5245 3.8817 17.7589 4.11612C17.9933 4.35054 18.125 4.66848 18.125 5ZM1.875 7.5H18.125V16.875C18.125 17.2065 17.9933 17.5245 17.7589 17.7589C17.5245 17.9933 17.2065 18.125 16.875 18.125H3.125C2.79348 18.125 2.47554 17.9933 2.24112 17.7589C2.0067 17.5245 1.875 17.2065 1.875 16.875V7.5ZM6.46875 11.9688L7.71875 13.1687C7.77784 13.2235 7.82204 13.2924 7.84719 13.3689C7.87234 13.4454 7.8776 13.5271 7.8625 13.6063L7.575 15.3062C7.55976 15.398 7.5704 15.4921 7.60572 15.5782C7.64105 15.6642 7.69967 15.7386 7.77498 15.7932C7.8503 15.8477 7.93933 15.8802 8.03208 15.8869C8.12482 15.8936 8.2176 15.8744 8.3 15.8313L9.81875 15.0312C9.8914 14.9945 9.97169 14.9753 10.0531 14.9753C10.1346 14.9753 10.2149 14.9945 10.2875 15.0312L11.8062 15.8313C11.8875 15.8663 11.9765 15.8792 12.0643 15.8686C12.1521 15.858 12.2356 15.8243 12.3061 15.7709C12.3766 15.7175 12.4317 15.6464 12.4658 15.5648C12.4999 15.4831 12.5117 15.3939 12.5 15.3062L12.2125 13.6063C12.1974 13.5271 12.2027 13.4454 12.2278 13.3689C12.253 13.2924 12.2972 13.2235 12.3563 13.1687L13.6063 11.9688C13.6717 11.9029 13.7178 11.8204 13.7395 11.7301C13.7612 11.6398 13.7577 11.5453 13.7293 11.4569C13.7009 11.3685 13.6488 11.2897 13.5786 11.2289C13.5084 11.1682 13.4228 11.1279 13.3313 11.1125L11.625 10.8687C11.5479 10.86 11.4738 10.8335 11.4087 10.7911C11.3436 10.7488 11.2893 10.692 11.25 10.625L10.4875 9.08125C10.4459 8.99837 10.3821 8.9287 10.3032 8.88001C10.2243 8.83132 10.1334 8.80553 10.0406 8.80553C9.9479 8.80553 9.857 8.83132 9.77808 8.88001C9.69917 8.9287 9.63534 8.99837 9.59375 9.08125L8.825 10.625C8.78945 10.6978 8.73674 10.7608 8.67142 10.8087C8.60609 10.8567 8.53011 10.888 8.45 10.9L6.75 11.1438C6.66386 11.1617 6.58388 11.2018 6.51795 11.26C6.45202 11.3183 6.40242 11.3927 6.37402 11.476C6.34563 11.5593 6.33944 11.6485 6.35605 11.7349C6.37266 11.8213 6.4115 11.9019 6.46875 11.9688Z" fill="#0F6421"/>
</svg>
