<svg width="28" height="28" viewBox="0 0 28 28" fill="none" xmlns="http://www.w3.org/2000/svg">
    <path fill-rule="evenodd" clip-rule="evenodd" d="M11.6946 3.20374C12.3737 2.73925 13.1772 2.49072 13.9999 2.49072C14.8226 2.49072 15.6262 2.73925 16.3053 3.20374L23.8886 8.39307C24.4365 8.76785 24.8848 9.27057 25.1946 9.85768C25.5044 10.4448 25.6664 11.0986 25.6666 11.7624V21.5834C25.6666 22.6664 25.2364 23.705 24.4706 24.4708C23.7048 25.2365 22.6662 25.6667 21.5833 25.6667H6.41658C5.33362 25.6667 4.29501 25.2365 3.52923 24.4708C2.76346 23.705 2.33325 22.6664 2.33325 21.5834V11.7624C2.33341 11.0986 2.49542 10.4448 2.80523 9.85768C3.11505 9.27057 3.56333 8.76785 4.11125 8.39307L11.6946 3.20374ZM11.0833 20.4167C10.9285 20.4167 10.7802 20.4782 10.6708 20.5876C10.5614 20.697 10.4999 20.8454 10.4999 21.0001C10.4999 21.1548 10.5614 21.3032 10.6708 21.4125C10.7802 21.5219 10.9285 21.5834 11.0833 21.5834H16.9166C17.0713 21.5834 17.2197 21.5219 17.3291 21.4125C17.4385 21.3032 17.4999 21.1548 17.4999 21.0001C17.4999 20.8454 17.4385 20.697 17.3291 20.5876C17.2197 20.4782 17.0713 20.4167 16.9166 20.4167H11.0833Z" fill="white"/>
</svg>
