<svg width="24" height="24" viewBox="0 0 24 24" fill="none" xmlns="http://www.w3.org/2000/svg">
    <path fill-rule="evenodd" clip-rule="evenodd" d="M7.30627 7.75816L7.64933 10.8457L6.95511 10.9011C5.98701 10.9784 5.19651 11.7062 5.03958 12.6646C4.67789 14.8735 4.67789 17.1265 5.03958 19.3354C5.19651 20.2938 5.98701 21.0215 6.95511 21.0988L8.45124 21.2183C10.8134 21.4068 13.1868 21.4068 15.5489 21.2183L17.0451 21.0988C18.0132 21.0215 18.8037 20.2938 18.9606 19.3354C19.3223 17.1265 19.3223 14.8735 18.9606 12.6646C18.8037 11.7062 18.0132 10.9784 17.0451 10.9011L16.3507 10.8457L16.6938 7.75815C16.7342 7.39418 16.7342 7.02684 16.6938 6.66286L16.671 6.45797C16.4295 4.28458 14.7209 2.56492 12.5492 2.30941C12.1843 2.26649 11.8157 2.26649 11.4509 2.30941C9.27913 2.56492 7.57053 4.28457 7.32904 6.45796L7.30627 6.66286C7.26583 7.02684 7.26583 7.39418 7.30627 7.75816ZM12.3739 3.79914C12.1255 3.76992 11.8746 3.76992 11.6262 3.79914C10.1475 3.97309 8.98428 5.1439 8.81986 6.62361L8.7971 6.82851C8.76889 7.08239 8.76889 7.33862 8.7971 7.59251L9.1459 10.7317C11.0467 10.6098 12.9534 10.6098 14.8542 10.7317L15.203 7.59251C15.2312 7.33862 15.2312 7.08239 15.203 6.82851L15.1802 6.62361C15.0158 5.1439 13.8525 3.97309 12.3739 3.79914ZM12.0001 14.5C11.1716 14.5 10.5001 15.1716 10.5001 16C10.5001 16.8284 11.1716 17.5 12.0001 17.5C12.8285 17.5 13.5001 16.8284 13.5001 16C13.5001 15.1716 12.8285 14.5 12.0001 14.5Z" fill="#0F6421"/>
</svg>
