<svg width="20" height="20" viewBox="0 0 20 20" fill="none" xmlns="http://www.w3.org/2000/svg">
    <path d="M9.37509 15.8337C9.37509 15.4885 9.65491 15.2087 10.0001 15.2087H15.0001C15.1151 15.2087 15.2084 15.1154 15.2084 15.0003L15.2084 5.00033C15.2084 4.88527 15.1151 4.79199 15.0001 4.79199L10.0001 4.79199C9.65491 4.79199 9.37509 4.51217 9.37509 4.16699C9.37509 3.82182 9.65491 3.54199 10.0001 3.54199H15.0001C15.8055 3.54199 16.4584 4.19491 16.4584 5.00033V15.0003C16.4584 15.8057 15.8055 16.4587 15.0001 16.4587H10.0001C9.65491 16.4587 9.37509 16.1788 9.37509 15.8337Z" fill="#EE3333"/>
    <path d="M13.0098 10.9297C13.0098 11.3899 12.6367 11.763 12.1764 11.763H8.12977C8.11066 12.0592 8.08674 12.3551 8.05801 12.6508L8.03329 12.9051C7.99309 13.3186 7.55396 13.5663 7.17928 13.3867C5.65602 12.6567 4.27703 11.6577 3.10865 10.4378L3.08369 10.4118C2.8611 10.1794 2.8611 9.81288 3.08369 9.58048L3.10865 9.55441C4.27703 8.33452 5.65602 7.33554 7.17928 6.60553C7.55396 6.42597 7.99309 6.67362 8.03329 7.08716L8.05801 7.34149C8.08674 7.6371 8.11066 7.93306 8.12977 8.22925H12.1764C12.6367 8.22925 13.0098 8.60234 13.0098 9.06258V10.9297Z" fill="#EE3333"/>
</svg>
