<svg width="130" height="130" viewBox="0 0 130 130" fill="none" xmlns="http://www.w3.org/2000/svg">
    <rect width="130" height="130" rx="65" fill="#0F6421" fill-opacity="0.1"/>
    <circle cx="65" cy="65" r="45" fill="url(#paint0_linear_199_4542)"/>
    <path d="M64.0001 74.3337C64.0001 73.7814 64.4478 73.3337 65.0001 73.3337H73.0001C73.1842 73.3337 73.3334 73.1844 73.3334 73.0003L73.3334 57.0003C73.3334 56.8162 73.1842 56.667 73.0001 56.667L65.0001 56.667C64.4478 56.667 64.0001 56.2193 64.0001 55.667C64.0001 55.1147 64.4478 54.667 65.0001 54.667H73.0001C74.2888 54.667 75.3334 55.7117 75.3334 57.0003V73.0003C75.3334 74.289 74.2888 75.3337 73.0001 75.3337H65.0001C64.4478 75.3337 64.0001 74.8859 64.0001 74.3337Z" fill="white"/>
    <path d="M69.8156 66.4873C69.8156 67.2237 69.2186 67.8206 68.4822 67.8206H62.0076C61.977 68.2945 61.9387 68.768 61.8928 69.241L61.8532 69.6479C61.7889 70.3096 61.0863 70.7058 60.4868 70.4185C58.0496 69.2505 55.8432 67.6522 53.9738 65.7003L53.9338 65.6586C53.5777 65.2868 53.5777 64.7004 53.9338 64.3286L53.9738 64.2869C55.8432 62.335 58.0496 60.7367 60.4868 59.5687C61.0863 59.2813 61.7889 59.6776 61.8532 60.3393L61.8928 60.7462C61.9387 61.2192 61.977 61.6927 62.0076 62.1666L68.4822 62.1666C69.2186 62.1666 69.8156 62.7636 69.8156 63.4999V66.4873Z" fill="white"/>
    <defs>
        <linearGradient id="paint0_linear_199_4542" x1="61.7857" y1="22.25" x2="102.81" y2="82.4846" gradientUnits="userSpaceOnUse">
            <stop stop-color="#0F6421"/>
            <stop offset="1" stop-color="#1ECA43"/>
        </linearGradient>
    </defs>
</svg>
