<svg width="48" height="48" viewBox="0 0 48 48" fill="none" xmlns="http://www.w3.org/2000/svg">
    <rect width="48" height="48" rx="24" fill="url(#paint0_linear_1020_356)"/>
    <path fill-rule="evenodd" clip-rule="evenodd" d="M24.9999 15C24.9999 14.4477 24.5522 14 23.9999 14C23.4477 14 22.9999 14.4477 22.9999 15V15.75H22.4425C20.2175 15.75 18.3759 17.48 18.237 19.7007L18.016 23.2342C17.9317 24.5814 17.4794 25.8797 16.7083 26.9876C16.0117 27.9886 16.6319 29.3712 17.8428 29.5165L21.2499 29.9254V31C21.2499 32.5188 22.4812 33.75 23.9999 33.75C25.5187 33.75 26.7499 32.5188 26.7499 31V29.9254L30.1571 29.5165C31.368 29.3712 31.9882 27.9886 31.2915 26.9876C30.5205 25.8797 30.0682 24.5814 29.9839 23.2342L29.7629 19.7007C29.624 17.48 27.7824 15.75 25.5573 15.75H24.9999V15ZM22.7499 31C22.7499 31.6904 23.3096 32.25 23.9999 32.25C24.6903 32.25 25.2499 31.6904 25.2499 31V30.25H22.7499V31Z" fill="#FFEFD1"/>
    <defs>
        <linearGradient id="paint0_linear_1020_356" x1="22.2857" y1="1.2" x2="44.1655" y2="33.3251" gradientUnits="userSpaceOnUse">
            <stop stop-color="#0F6421"/>
            <stop offset="1" stop-color="#1ECA43"/>
        </linearGradient>
    </defs>
</svg>
