<svg width="20" height="20" viewBox="0 0 20 20" fill="none" xmlns="http://www.w3.org/2000/svg">
    <path d="M13.4424 2.65421C11.1675 2.27282 8.83263 2.27282 6.55767 2.65421C5.72655 2.79354 5.06467 3.4316 4.89802 4.25891C4.13459 8.04899 4.09293 11.9491 4.77524 15.7546L5.05303 17.3039C5.13869 17.7817 5.72111 17.9726 6.07299 17.6383L9.42609 14.4529C9.74773 14.1473 10.2524 14.1473 10.574 14.4529L13.9271 17.6383C14.279 17.9726 14.8614 17.7817 14.9471 17.3039L15.2249 15.7546C15.9072 11.9491 15.8655 8.04898 15.1021 4.25891C14.9354 3.4316 14.2735 2.79354 13.4424 2.65421Z" fill="#0F6421"/>
</svg>
