<svg width="28" height="28" viewBox="0 0 28 28" fill="none" xmlns="http://www.w3.org/2000/svg">
    <g clip-path="url(#clip0_973_555)">
        <path d="M14 5.16553C11.3073 5.16553 9.11646 7.35625 9.11646 10.0491C9.11646 12.7419 11.3073 14.9326 14 14.9326C16.6928 14.9326 18.8836 12.7419 18.8836 10.0492C18.8836 7.35625 16.6928 5.16553 14 5.16553Z" fill="white"/>
        <path d="M14 0C6.28031 0 0 6.28031 0 14C0 17.5718 1.3452 20.8347 3.55447 23.3108C4.02763 21.2331 5.1135 19.3374 6.699 17.8606C7.81178 16.8241 9.11378 16.0484 10.5211 15.5661C8.69252 14.4089 7.47573 12.3686 7.47573 10.0492C7.47573 6.45165 10.4026 3.52499 14 3.52499C17.5974 3.52499 20.5241 6.45165 20.5241 10.0492C20.5241 12.3675 19.3084 14.4071 17.481 15.5646C19.0054 16.0867 20.4027 16.9536 21.5757 18.1266C23.0089 19.5597 23.9984 21.3612 24.4444 23.3116C26.6546 20.8355 28 17.5722 28 14C28 6.28031 21.7197 0 14 0Z" fill="white"/>
        <path d="M4.98218 24.6993C7.42004 26.7574 10.5673 27.9998 14 27.9998C17.4328 27.9998 20.58 26.7571 23.0179 24.6993C22.7934 22.6597 21.8767 20.7475 20.4158 19.2866C18.7017 17.5724 16.4232 16.6284 14 16.6284C9.38496 16.6284 5.48312 20.1492 4.98218 24.6993Z" fill="white"/>
    </g>
    <defs>
        <clipPath id="clip0_973_555">
            <rect width="28" height="28" fill="white"/>
        </clipPath>
    </defs>
</svg>
