<svg width="24" height="24" viewBox="0 0 24 24" fill="none" xmlns="http://www.w3.org/2000/svg">
    <g clip-path="url(#clip0_1643_3262)">
        <path fill-rule="evenodd" clip-rule="evenodd" d="M23.397 21.2442C23.3813 21.0121 23.3163 20.7861 23.2062 20.5812C23.0961 20.3763 22.9435 20.1973 22.7586 20.0562L17.4354 15.986C17.3225 15.9 17.2478 15.7733 17.2272 15.6329C17.2066 15.4925 17.2417 15.3497 17.325 15.2348C18.4218 13.7156 19.0698 11.8508 19.0698 9.83482C19.07 4.7377 14.9327 0.600098 9.8353 0.600098C4.73794 0.600098 0.600098 4.7377 0.600098 9.83506C0.600098 14.9324 4.7377 19.07 9.83506 19.07C11.8511 19.07 13.7159 18.422 15.2351 17.3252C15.4751 17.1524 15.806 17.2004 15.986 17.4356L20.0564 22.7588C20.342 23.1332 20.7764 23.366 21.2444 23.3972C21.7124 23.426 22.1732 23.2532 22.5044 22.922L22.922 22.5044C23.0858 22.3399 23.2129 22.1426 23.2948 21.9254C23.3767 21.7082 23.4116 21.4761 23.3972 21.2444L23.397 21.2442ZM9.8353 16.9266C5.9209 16.9266 2.7433 13.7492 2.7433 9.83506C2.7433 5.9209 5.9209 2.74306 9.8353 2.74306C13.7497 2.74306 16.9271 5.92066 16.9271 9.83506C16.9271 13.7495 13.7495 16.9268 9.83506 16.9268L9.8353 16.9266Z" fill="#0F6421"/>
    </g>
    <defs>
        <clipPath id="clip0_1643_3262">
            <rect width="24" height="24" fill="white"/>
        </clipPath>
    </defs>
</svg>
