<svg width="28" height="28" viewBox="0 0 28 28" fill="none" xmlns="http://www.w3.org/2000/svg">
    <g clip-path="url(#clip0_973_1002)">
        <path fill-rule="evenodd" clip-rule="evenodd" d="M27.2963 24.785C27.2781 24.5142 27.2022 24.2505 27.0737 24.0115C26.9453 23.7724 26.7672 23.5636 26.5515 23.399L20.3411 18.6504C20.2095 18.5501 20.1223 18.4022 20.0982 18.2385C20.0742 18.0747 20.1151 17.908 20.2123 17.774C21.4919 16.0016 22.2479 13.826 22.2479 11.474C22.2482 5.5274 17.4213 0.700195 11.4744 0.700195C5.52743 0.700195 0.699951 5.5274 0.699951 11.4743C0.699951 17.4212 5.52715 22.2484 11.4741 22.2484C13.8261 22.2484 16.0017 21.4924 17.7741 20.2128C18.0541 20.0112 18.4402 20.0672 18.6502 20.3416L23.399 26.552C23.7322 26.9888 24.239 27.2604 24.785 27.2968C25.331 27.3304 25.8686 27.1288 26.255 26.7424L26.7422 26.2552C26.9333 26.0633 27.0815 25.8331 27.1771 25.5797C27.2726 25.3263 27.3134 25.0555 27.2966 24.7852L27.2963 24.785ZM11.4744 19.7478C6.90755 19.7478 3.20035 16.0408 3.20035 11.4743C3.20035 6.9078 6.90755 3.20032 11.4744 3.20032C16.0412 3.20032 19.7481 6.90752 19.7481 11.4743C19.7481 16.0411 16.0409 19.748 11.4741 19.748L11.4744 19.7478Z" fill="white"/>
    </g>
    <defs>
        <clipPath id="clip0_973_1002">
            <rect width="28" height="28" fill="white"/>
        </clipPath>
    </defs>
</svg>
