<svg width="20" height="20" viewBox="0 0 20 20" fill="none" xmlns="http://www.w3.org/2000/svg">
    <path fill-rule="evenodd" clip-rule="evenodd" d="M8.10802 3.32764C9.018 1.99625 10.982 1.99626 11.892 3.32764L12.2519 3.85427C14.5069 7.15361 16.4444 10.6591 18.0383 14.3239L18.1135 14.4967C18.6752 15.7882 17.8266 17.2546 16.427 17.411C12.1556 17.8884 7.84436 17.8884 3.57301 17.411C2.17339 17.2546 1.32475 15.7882 1.88646 14.4967L1.96164 14.3239C3.55558 10.6591 5.49305 7.15361 7.74809 3.85426L8.10802 3.32764ZM10.8333 7.50045C10.8333 7.96069 10.4602 8.33378 10 8.33378C9.53977 8.33378 9.16668 7.96069 9.16668 7.50045C9.16668 7.04021 9.53977 6.66712 10 6.66712C10.4602 6.66712 10.8333 7.04021 10.8333 7.50045ZM10 9.79212C10.3452 9.79212 10.625 10.0719 10.625 10.4171V14.5838C10.625 14.929 10.3452 15.2088 10 15.2088C9.65483 15.2088 9.37501 14.929 9.37501 14.5838V10.4171C9.37501 10.0719 9.65483 9.79212 10 9.79212Z" fill="#0F6421"/>
</svg>
