<svg width="24" height="24" viewBox="0 0 24 24" fill="none" xmlns="http://www.w3.org/2000/svg">
    <path d="M12 24C18.6274 24 24 18.6274 24 12C24 5.37258 18.6274 0 12 0C5.37258 0 0 5.37258 0 12C0 18.6274 5.37258 24 12 24Z" fill="#0F6421"/>
    <path d="M19.4414 16.9622C19.4858 17.1425 19.4872 17.3307 19.4454 17.5116C19.4036 17.6926 19.3199 17.8611 19.2009 18.0037C18.3211 19.0591 17.22 19.9082 15.9756 20.4909C14.7312 21.0736 13.374 21.3756 12 21.3756C10.6259 21.3756 9.26868 21.0736 8.02431 20.4909C6.77994 19.9082 5.67886 19.0591 4.79902 18.0037C4.68004 17.8611 4.59628 17.6926 4.55451 17.5116C4.51273 17.3307 4.51412 17.1425 4.55855 16.9622C4.96691 15.3052 5.91641 13.8318 7.25668 12.7753C7.4566 12.6186 7.7024 12.5317 7.95641 12.5281C8.21041 12.5244 8.4586 12.6042 8.66293 12.7551C9.55355 13.4175 10.7212 13.8187 11.9981 13.8187C13.275 13.8187 14.4421 13.4175 15.3332 12.7551C15.5376 12.6042 15.7858 12.5244 16.0398 12.5281C16.2938 12.5317 16.5396 12.6186 16.7395 12.7753C18.0812 13.8312 19.032 15.3046 19.4414 16.9622Z" fill="white"/>
    <path d="M12 12.2709C14.3789 12.2709 16.3073 10.3425 16.3073 7.96359C16.3073 5.58471 14.3789 3.65625 12 3.65625C9.62109 3.65625 7.69263 5.58471 7.69263 7.96359C7.69263 10.3425 9.62109 12.2709 12 12.2709Z" fill="white"/>
</svg>
