<svg width="24" height="24" viewBox="0 0 24 24" fill="none" xmlns="http://www.w3.org/2000/svg">
    <path fill-rule="evenodd" clip-rule="evenodd" d="M7.68145 2.586C6.82345 2.33925 6.00895 2.4465 5.3872 2.89875C4.7647 3.351 4.41145 4.0935 4.3807 4.98675C4.35574 5.40856 4.21085 5.81446 3.96306 6.15672C3.71526 6.49898 3.37488 6.76336 2.98195 6.91875C2.1337 7.227 1.5382 7.7925 1.30045 8.52375C1.0627 9.255 1.21345 10.0642 1.7137 10.8045C2.1787 11.529 2.1802 12.4605 1.71745 13.1895C1.2127 13.9373 1.06345 14.7458 1.30045 15.4762C1.5382 16.2083 2.1352 16.7745 2.9752 17.079C3.36862 17.233 3.70989 17.4961 3.95888 17.8375C4.20786 18.1788 4.35421 18.5841 4.3807 19.0057C4.41145 19.908 4.76545 20.6497 5.3872 21.1012C6.0097 21.5535 6.8257 21.6608 7.68445 21.4132C8.09333 21.3069 8.52406 21.3194 8.92607 21.4493C9.32808 21.5793 9.68467 21.8212 9.95395 22.1467C10.509 22.8577 11.2312 23.25 12 23.25C12.7695 23.25 13.4925 22.857 14.0415 22.152C14.3096 21.8254 14.6654 21.5823 15.0671 21.4512C15.4688 21.32 15.8995 21.3063 16.3087 21.4118C17.1765 21.6607 17.991 21.5535 18.6127 21.1012C19.2352 20.649 19.5885 19.9065 19.6192 19.0133C19.6442 18.5914 19.7891 18.1855 20.0368 17.8433C20.2846 17.501 20.625 17.2366 21.018 17.0812C21.8662 16.773 22.4617 16.2075 22.6995 15.4762C22.9372 14.745 22.7865 13.9358 22.2862 13.1955C22.0584 12.8396 21.9371 12.4261 21.9364 12.0035C21.9358 11.581 22.0558 11.1671 22.2825 10.8105C22.7872 10.0627 22.9365 9.25425 22.6995 8.52375C22.4617 7.79175 21.8647 7.2255 21.0247 6.921C20.6313 6.76701 20.29 6.50387 20.041 6.16255C19.792 5.82123 19.6457 5.4159 19.6192 4.99425C19.5885 4.092 19.2345 3.35025 18.6127 2.89875C17.9902 2.4465 17.1742 2.33925 16.3155 2.58675C15.9066 2.69311 15.4758 2.68059 15.0738 2.55066C14.6718 2.42074 14.3152 2.17879 14.046 1.85325C13.491 1.14225 12.7687 0.75 12 0.75C11.2305 0.75 10.5075 1.143 9.95845 1.848C9.69031 2.17455 9.33447 2.41771 8.93281 2.54885C8.53114 2.67999 8.10037 2.69366 7.6912 2.58825L7.68145 2.586ZM11.625 13.1895L9.1552 10.7198C9.01375 10.5831 8.8243 10.5075 8.62765 10.5092C8.431 10.511 8.24289 10.5898 8.10384 10.7289C7.96478 10.8679 7.8859 11.0561 7.8842 11.2527C7.88249 11.4493 7.95808 11.6388 8.0947 11.7802L10.5645 14.25C10.8457 14.5312 11.2272 14.6892 11.625 14.6892C12.0227 14.6892 12.4042 14.5312 12.6855 14.25L16.6552 10.2802C16.7918 10.1388 16.8674 9.94935 16.8657 9.7527C16.864 9.55605 16.7851 9.36794 16.6461 9.22889C16.507 9.08983 16.3189 9.01095 16.1223 9.00924C15.9256 9.00754 15.7362 9.08313 15.5947 9.21975L11.625 13.1895Z" fill="#0096FF"/>
</svg>
